<svg width="48" height="48" viewBox="0 0 48 48" fill="none" xmlns="http://www.w3.org/2000/svg">
<rect x="0.5" y="0.5" width="47" height="47" stroke="#0266C1"/>
<path d="M34.5984 27.538C35.2763 25.2529 34.7185 22.6592 34.1258 20.8619C34.1219 20.7924 34.102 20.725 34.0677 20.6659C33.8663 20.0821 33.6803 19.6026 33.5215 19.2565C33.8139 19.1312 34.0067 18.8279 34.0096 18.4892V15.0156C34.0096 14.555 33.6627 14.1816 33.2348 14.1816H23.7171C23.5032 14.1812 23.3295 14.3676 23.3291 14.5979C23.3291 14.6065 23.3293 14.6151 23.3298 14.6237C23.4615 17.1256 23.291 18.8228 22.7991 20.0196C22.7893 20.0315 22.7802 20.044 22.772 20.0571C22.7705 20.0779 22.7705 20.0989 22.772 20.1197C22.5842 20.5553 22.3302 20.9541 22.0205 21.2998L21.9856 21.3248C21.9856 21.3248 21.9856 21.3248 21.9856 21.354C21.5314 21.8202 21.0077 22.2008 20.4361 22.4799C19.4403 22.9555 18.4183 23.3649 17.3759 23.7058L17.1783 23.7767C13.5564 25.0694 13.0838 27.4129 13.0915 28.5889C13.0906 28.6055 13.0906 28.6222 13.0915 28.6389V31.6163C13.0921 31.7612 13.1625 31.8953 13.2775 31.9707C14.1651 32.5521 15.1233 32.9983 16.1247 33.2968C16.3306 33.3591 16.5445 33.2299 16.6024 33.0082C16.6133 32.9664 16.6181 32.9231 16.6166 32.8798V32.7839H17.1861V33.2008C17.1836 33.4074 17.322 33.5848 17.5115 33.6178C17.8485 33.6762 18.1855 33.7221 18.5147 33.7513C18.6226 33.761 18.7294 33.7217 18.8091 33.6429C18.8888 33.5633 18.9338 33.4513 18.9331 33.3343V32.8089H19.5025V33.401C19.5025 33.6313 19.676 33.818 19.8899 33.818C20.2153 33.818 20.5407 33.818 20.8893 33.768C21.0911 33.7506 21.2463 33.5689 21.2457 33.351V32.8089H21.8151V33.1758C21.8124 33.4061 21.9836 33.5952 22.1975 33.5982C22.2199 33.5985 22.2423 33.5967 22.2645 33.5928C22.9756 33.4756 23.6765 33.2957 24.3602 33.0549L24.4222 33.0257C27.1337 31.3577 28.8537 32.7296 28.9234 32.788C28.991 32.8445 29.0741 32.8753 29.1597 32.8756H29.64C29.854 32.8756 30.0274 32.6889 30.0274 32.4586V31.7539H30.5814V32.4503C30.5814 32.6805 30.7548 32.8673 30.9687 32.8673H32.2161C32.43 32.8673 32.6034 32.6805 32.6034 32.4503V31.7539H33.1767V32.4503C33.1767 32.6805 33.3502 32.8673 33.5641 32.8673H34.5209C34.7348 32.8673 34.9083 32.6805 34.9083 32.4503V27.955C34.9121 27.7537 34.7817 27.5783 34.5984 27.538ZM25.4061 15.024H33.2155V18.4767H25.4061V15.024ZM20.5368 23.3389L20.5407 23.3639C20.8582 23.6414 21.1513 23.9499 21.4162 24.2855C21.3459 24.4112 21.3097 24.5557 21.3116 24.7025C21.3089 25.1423 21.638 25.5012 22.0466 25.5041C22.4552 25.507 22.7886 25.1527 22.7913 24.7128C22.7938 24.2984 22.5007 23.9512 22.1173 23.9143C21.8723 23.5547 21.5931 23.2235 21.2844 22.9261C21.6306 22.714 21.9563 22.4653 22.2567 22.1838C22.6324 22.5632 22.982 22.9716 23.3026 23.4056C23.1679 23.8209 23.3714 24.2751 23.7571 24.4202C24.1429 24.5653 24.5648 24.3462 24.6996 23.931C24.8344 23.5157 24.6309 23.0615 24.2452 22.9164C24.1651 22.8863 24.0809 22.8712 23.996 22.8718H23.9031C23.5633 22.4114 23.1931 21.978 22.7952 21.575C22.9798 21.3303 23.1432 21.0679 23.2833 20.791C23.883 21.1271 24.4626 21.5031 25.0187 21.9169C25.0149 22.3614 25.3465 22.725 25.7594 22.7291C26.1723 22.7332 26.5101 22.3762 26.5139 21.9318C26.5177 21.4873 26.1861 21.1237 25.7732 21.1196C25.6553 21.1184 25.5387 21.1473 25.4332 21.2039C24.8478 20.7773 24.2385 20.3901 23.6087 20.0446C24.0309 18.8353 24.213 17.2299 24.1277 15.0407H24.6352V18.4934C24.6352 18.954 24.982 19.3274 25.4099 19.3274H32.6693C32.77 19.5484 32.9404 19.932 33.1264 20.4324H32.9676C30.6143 20.4507 28.7204 22.5191 28.7374 25.0524C28.747 26.4919 29.3839 27.843 30.4574 28.7015C27.3236 29.5897 22.6093 30.6447 18.6426 30.3694C19.3747 27.2211 18.4992 25.2821 17.9298 24.4314C18.8166 24.1183 19.6868 23.7536 20.5368 23.3389ZM17.1512 24.6691C17.5696 25.1987 18.6619 26.9793 17.8601 30.2527C16.4643 30.1346 15.1086 29.6936 13.8857 28.96C13.8718 28.8647 13.8627 28.7686 13.8585 28.6723V28.6431C13.8276 27.7549 14.1374 25.8325 17.1512 24.6691ZM33.9515 32.0333V31.3369C33.9515 31.1066 33.778 30.9199 33.5641 30.9199H32.2199C32.006 30.9199 31.8326 31.1066 31.8326 31.3369V32.0333H31.3561V31.3369C31.3561 31.1066 31.1826 30.9199 30.9687 30.9199H29.6323C29.4184 30.9199 29.2449 31.1066 29.2449 31.3369V32.0166C28.7181 31.6621 26.7929 30.6322 24.0619 32.2751C23.576 32.4478 23.0805 32.587 22.5783 32.6921V32.4044C22.5783 32.1741 22.4048 31.9874 22.1909 31.9874H20.8545C20.6405 31.9874 20.4671 32.1741 20.4671 32.4044V32.9757H20.2695V32.3919C20.2695 32.1616 20.0961 31.9749 19.8822 31.9749H18.538C18.3241 31.9749 18.1506 32.1616 18.1506 32.3919V32.8881L17.9531 32.8589V32.3919C17.9531 32.1616 17.7796 31.9749 17.5657 31.9749H16.2215C16.0245 31.9734 15.8578 32.1313 15.8341 32.3418C15.1466 32.0982 14.4845 31.7781 13.8585 31.3869V29.8941C15.5475 30.8573 17.7323 31.2201 20.0565 31.2201C26.2312 31.2201 33.2968 28.6764 34.1297 28.372L34.1335 32.0333H33.9515ZM33.7617 27.6339C33.4324 27.7507 32.6228 28.0509 31.5033 28.372C29.7701 27.4691 29.0451 25.2246 29.8839 23.359C30.4577 22.0827 31.6506 21.2635 32.9676 21.2414C33.1203 21.2391 33.273 21.2474 33.4247 21.2664L33.4285 21.2789C33.998 23.047 34.5093 25.5698 33.7617 27.6339Z" fill="#0266C1"/>
<path d="M26.8978 15.5286C26.2752 15.5286 25.7705 16.0719 25.7705 16.742C25.7726 17.4113 26.2761 17.9532 26.8978 17.9555C27.5203 17.9555 28.025 17.4122 28.025 16.742C28.025 16.0719 27.5204 15.5286 26.8978 15.5286ZM26.8978 17.1215C26.7031 17.1215 26.5453 16.9516 26.5453 16.742C26.5453 16.5324 26.7031 16.3626 26.8978 16.3626C27.0925 16.3626 27.2503 16.5324 27.2503 16.742C27.2503 16.9516 27.0925 17.1215 26.8978 17.1215Z" fill="#0266C1"/>
</svg>
