<svg width="10" height="16" viewBox="0 0 10 16" fill="none" xmlns="http://www.w3.org/2000/svg">
<path d="M5.04199 2.42035C6.01391 2.42035 6.80432 3.18736 6.80432 4.1305C6.80432 5.0708 6.01391 5.83781 5.04199 5.83781C4.07008 5.83781 3.27966 5.0708 3.27966 4.1305C3.27966 3.18736 4.07008 2.42035 5.04199 2.42035ZM5.04199 8.25816C7.38981 8.25816 9.29852 6.40597 9.29852 4.1305C9.29852 1.85219 7.38981 0 5.04199 0C2.69417 0 0.788393 1.85219 0.788393 4.1305C0.788393 6.40597 2.69417 8.25816 5.04199 8.25816ZM6.76334 11.6273C7.62987 11.4342 8.46419 11.1018 9.23411 10.6331C9.81668 10.278 9.99233 9.53083 9.62639 8.96551C9.25753 8.39735 8.49054 8.22691 7.90505 8.58485C6.16321 9.6473 3.92077 9.6473 2.17601 8.58485C1.59345 8.22691 0.823523 8.39735 0.457591 8.96551C0.0916579 9.53083 0.267305 10.278 0.84987 10.6331C1.61979 11.1018 2.45412 11.4342 3.32065 11.6273L0.940621 13.934C0.454662 14.4056 0.454662 15.1726 0.940621 15.6442C1.18653 15.88 1.50269 15.9993 1.82179 15.9993C2.14088 15.9993 2.45997 15.88 2.70588 15.6442L5.04199 13.3772L7.38103 15.6442C7.86699 16.1186 8.65448 16.1186 9.14336 15.6442C9.62932 15.1726 9.62932 14.4056 9.14336 13.934L6.76334 11.6273Z" fill="#2D383F"/>
</svg>
