<svg width="16" height="15" viewBox="0 0 16 15" fill="none" xmlns="http://www.w3.org/2000/svg">
<path d="M9.85292 0C9.37651 0 8.92945 0.244007 8.6427 0.59589C8.35595 0.947774 8.1979 1.37671 8.08274 1.82877C7.89986 2.55565 7.84341 3.36216 7.82986 4.08904C6.49094 4.17894 5.27846 4.57962 4.27145 5.19863C3.86277 4.85188 3.37055 4.65925 2.89866 4.66438C2.36128 4.66952 1.851 4.90325 1.47168 5.38356C0.746901 6.30051 0.830442 7.80051 1.67037 8.69178C1.61844 8.96661 1.58006 9.24914 1.58006 9.53425C1.58006 12.5548 4.63722 15 8.40788 15C12.1785 15 15.2357 12.5522 15.2357 9.53425C15.2357 9.24914 15.1973 8.96661 15.1454 8.69178C15.9853 7.80051 16.0689 6.30051 15.3441 5.38356C14.9648 4.90325 14.4545 4.66952 13.9171 4.66438C13.4452 4.65925 12.953 4.85188 12.5443 5.19863C11.5418 4.58219 10.3361 4.18151 9.00396 4.08904C9.02202 3.41866 9.06944 2.7226 9.20265 2.19863C9.28619 1.86986 9.38554 1.63099 9.49166 1.5C9.59778 1.36901 9.67455 1.31507 9.85292 1.31507C10.239 1.31507 10.2887 1.44092 10.5213 1.74658C10.6387 1.90068 10.7741 2.09332 10.9909 2.28082C11.2076 2.46832 11.5283 2.63014 11.876 2.63014V1.31507C11.7789 1.31507 11.7608 1.3125 11.6953 1.25342C11.6299 1.19435 11.5396 1.05822 11.4063 0.883562C11.1399 0.531678 10.6229 0 9.85292 0ZM13.61 0.123288C12.7114 0.123288 11.9844 0.950343 11.9844 1.9726C11.9844 2.99486 12.7114 3.82192 13.61 3.82192C14.5087 3.82192 15.2357 2.99486 15.2357 1.9726C15.2357 0.950343 14.5087 0.123288 13.61 0.123288ZM13.61 0.780822C14.188 0.780822 14.6577 1.31507 14.6577 1.9726C14.6577 2.63014 14.188 3.16438 13.61 3.16438C13.032 3.16438 12.5624 2.63014 12.5624 1.9726C12.5624 1.31507 13.032 0.780822 13.61 0.780822ZM8.40788 5.11644C11.6073 5.11644 14.3145 7.14298 14.3145 9.53425C14.3145 11.9281 11.6073 13.9521 8.40788 13.9521C5.20847 13.9521 2.50127 11.9281 2.50127 9.53425C2.50127 7.14298 5.20847 5.11644 8.40788 5.11644ZM2.91672 5.71233C3.07703 5.7149 3.24411 5.75599 3.40442 5.83562C2.82415 6.33647 2.36354 6.91182 2.0497 7.56164C1.83294 7.05308 1.89164 6.41866 2.15807 6.08219C2.35225 5.83562 2.62094 5.70976 2.91672 5.71233ZM13.899 5.71233C14.1948 5.70976 14.4635 5.83562 14.6577 6.08219C14.9241 6.41866 14.9828 7.05308 14.7661 7.56164C14.4522 6.91182 13.9916 6.33647 13.4113 5.83562C13.5716 5.75599 13.7387 5.7149 13.899 5.71233ZM6.09581 7.35616C5.51779 7.35616 5.04816 7.89041 5.04816 8.54795C5.04816 9.20548 5.51779 9.73973 6.09581 9.73973C6.67383 9.73973 7.14347 9.20548 7.14347 8.54795C7.14347 7.89041 6.67383 7.35616 6.09581 7.35616ZM10.7199 7.35616C10.1419 7.35616 9.67229 7.89041 9.67229 8.54795C9.67229 9.20548 10.1419 9.73973 10.7199 9.73973C11.298 9.73973 11.7676 9.20548 11.7676 8.54795C11.7676 7.89041 11.298 7.35616 10.7199 7.35616ZM5.53586 11.4041C5.90389 12.2697 7.04186 13.1096 8.40788 13.1096C9.77389 13.1096 10.9299 12.2697 11.298 11.4041C10.6296 11.8947 9.5752 12.226 8.40788 12.226C7.24055 12.226 6.20419 11.8947 5.53586 11.4041Z" fill="#2D383F"/>
</svg>
