<svg width="48" height="48" viewBox="0 0 48 48" fill="none" xmlns="http://www.w3.org/2000/svg">
<rect x="0.5" y="0.5" width="47" height="47" stroke="#0266C1"/>
<g clip-path="url(#clip0_3839_159)">
<path d="M31.7921 21.5644H25.948C24.119 21.5644 22.6363 23.058 22.6363 24.9005C22.6363 26.743 24.119 28.2367 25.948 28.2367H28.4804C30.3094 28.2367 31.7921 29.7303 31.7921 31.5728C31.7921 33.4154 30.3094 34.909 28.4804 34.909H16.2077M19.3246 29.3783C19.3246 27.6442 17.9291 26.2384 16.2077 26.2384C14.4863 26.2384 13.0908 27.6442 13.0908 29.3783V29.4963C13.0908 30.1849 13.3074 30.8557 13.7094 31.4126L16.2015 34.8646C16.2046 34.8688 16.2108 34.8688 16.2139 34.8646L18.706 31.4126C19.108 30.8557 19.3246 30.1849 19.3246 29.4963V29.3783ZM16.8102 28.0858L16.8289 28.0947C17.2062 28.2744 17.4812 28.618 17.5757 29.0275C17.6712 29.4415 17.5685 29.8804 17.3026 30.2104C17.0395 30.5367 16.6416 30.7298 16.2243 30.7298H16.1911C15.7738 30.7298 15.3759 30.5367 15.1128 30.2104C14.8469 29.8804 14.7442 29.4415 14.8397 29.0275C14.9342 28.618 15.2092 28.2744 15.5865 28.0947L15.6052 28.0858C15.9866 27.904 16.4288 27.904 16.8102 28.0858ZM34.909 16.2528C34.909 14.5187 33.5135 13.0908 31.7921 13.0908C30.0707 13.0908 28.6752 14.5187 28.6752 16.2528C28.6752 16.9345 28.8934 17.6054 29.2974 18.1523L31.786 21.521C31.789 21.5251 31.7952 21.5251 31.7983 21.521L34.2868 18.1523C34.6908 17.6054 34.909 16.9345 34.909 16.2528ZM32.3862 14.8923L32.4285 14.912C32.796 15.0831 33.0652 15.4147 33.1589 15.8114C33.255 16.2184 33.1553 16.6472 32.89 16.9689L32.8767 16.985C32.618 17.2987 32.2341 17.4802 31.8293 17.4802H31.755C31.3501 17.4802 30.9663 17.2987 30.7076 16.985L30.6943 16.9689C30.4289 16.6472 30.3293 16.2184 30.4253 15.8114C30.519 15.4147 30.7882 15.0831 31.1557 14.912L31.198 14.8923C31.5749 14.7168 32.0093 14.7168 32.3862 14.8923Z" stroke="#0266C1" stroke-linecap="round"/>
</g>
<defs>
<clipPath id="clip0_3839_159">
<rect width="24" height="24" fill="white" transform="translate(12 12)"/>
</clipPath>
</defs>
</svg>
