<svg width="18" height="10" viewBox="0 0 18 10" fill="none" xmlns="http://www.w3.org/2000/svg">
<path d="M17.5026 8.52743C17.457 8.45645 17.1747 7.88659 15.8163 6.71531C14.3942 5.48883 14.5852 5.68799 16.2981 3.56728C17.3413 2.27572 17.7584 1.48699 17.6279 1.1498C17.5037 0.828395 16.7364 0.913184 16.7364 0.913184L14.1851 0.926986C14.1851 0.926986 13.9962 0.903324 13.855 0.981212C13.7181 1.05811 13.63 1.23558 13.63 1.23558C13.63 1.23558 13.2257 2.2353 12.6866 3.08516C11.5499 4.87855 11.0946 4.9732 10.9089 4.86179C10.477 4.60249 10.5852 3.81869 10.5852 3.26263C10.5852 1.52445 10.8686 0.799803 10.0323 0.612478C9.75426 0.550365 9.55049 0.508957 8.8405 0.502055C7.92992 0.493182 7.15838 0.505013 6.72219 0.703183C6.4314 0.835296 6.20747 1.13009 6.34438 1.14685C6.51312 1.16755 6.89518 1.24248 7.09788 1.49882C7.36002 1.8291 7.35047 2.57248 7.35047 2.57248C7.35047 2.57248 7.50117 4.61827 6.99918 4.87263C6.65427 5.04714 6.182 4.69122 5.16848 3.06347C4.64952 2.23037 4.25685 1.30854 4.25685 1.30854C4.25685 1.30854 4.1815 1.13699 4.04672 1.0453C3.88328 0.933888 3.65404 0.898395 3.65404 0.898395L1.22797 0.912198C1.22797 0.912198 0.863949 0.922057 0.730228 1.06896C0.611365 1.20009 0.720676 1.47023 0.720676 1.47023C0.720676 1.47023 2.62036 5.59827 4.77051 7.67954C6.74342 9.5873 8.98271 9.46208 8.98271 9.46208H9.99729C9.99729 9.46208 10.304 9.43054 10.46 9.27377C10.6043 9.12983 10.599 8.85969 10.599 8.85969C10.599 8.85969 10.5789 7.59475 11.2114 7.40842C11.8344 7.22504 12.6346 8.63095 13.4825 9.17222C14.1235 9.58138 14.6107 9.49166 14.6107 9.49166L16.8786 9.46208C16.8786 9.46208 18.0651 9.39406 17.5026 8.52743Z" fill="#2D383F"/>
</svg>
