<svg width="12" height="12" viewBox="0 0 12 12" id="moon" fill="none" xmlns="http://www.w3.org/2000/svg">
  <g clip-path="url(#clip0_521_1135)">
    <path
      d="M11.1966 6.75384C11.0851 6.72586 10.9736 6.75384 10.876 6.82379C10.5135 7.13157 10.0953 7.3834 9.6352 7.55128C9.20301 7.71916 8.72901 7.8031 8.22712 7.8031C7.09786 7.8031 6.0662 7.34143 5.32731 6.59995C4.58841 5.85847 4.12835 4.82319 4.12835 3.68998C4.12835 3.21432 4.212 2.75264 4.35141 2.33293C4.50477 1.88525 4.72783 1.47953 5.0206 1.12978C5.14607 0.975884 5.11819 0.752041 4.96483 0.626129C4.86724 0.556178 4.75571 0.528198 4.64418 0.556178C3.45916 0.877953 2.4275 1.59145 1.6886 2.54279C0.977593 3.48013 0.54541 4.64132 0.54541 5.91443C0.54541 7.43936 1.15883 8.82439 2.16261 9.83168C3.16639 10.839 4.54659 11.4545 6.0662 11.4545C7.34881 11.4545 8.53383 11.0069 9.48184 10.2654C10.4438 9.50991 11.1409 8.43266 11.4336 7.20152C11.5033 6.99167 11.3918 6.79581 11.1966 6.75384ZM9.0636 9.67779C8.255 10.3213 7.22334 10.7131 6.09408 10.7131C4.76965 10.7131 3.57069 10.1674 2.70633 9.30005C1.84196 8.43266 1.29825 7.22951 1.29825 5.90044C1.29825 4.79521 1.66072 3.78791 2.28808 2.97648C2.72027 2.41688 3.26398 1.9552 3.89134 1.63342C3.82164 1.78732 3.75193 1.94121 3.69617 2.10909C3.51493 2.61274 3.43128 3.14437 3.43128 3.70397C3.43128 5.03304 3.97499 6.25019 4.83936 7.11758C5.70373 7.98498 6.91663 8.53059 8.24106 8.53059C8.8266 8.53059 9.38425 8.43266 9.90008 8.2368C10.0813 8.16685 10.2626 8.0969 10.4299 8.01296C10.0953 8.65651 9.6352 9.2301 9.0636 9.67779Z"
      fill="white"/>
  </g>
  <defs>
    <clipPath id="clip0_521_1135">
      <rect width="12" height="12" fill="white"/>
    </clipPath>
  </defs>
</svg>
